<svg xmlns="http://www.w3.org/2000/svg" xmlns:xlink="http://www.w3.org/1999/xlink" width="1080" zoomAndPan="magnify" viewBox="0 0 810 809.999993" height="1080" preserveAspectRatio="xMidYMid meet" version="1.2"><defs/><g id="9864d5605e"><g style="fill:#000000;fill-opacity:1;"><g transform="translate(176.901689, 474.953639)"><path style="stroke:none" d="M 401.984375 -67.96875 C 392.503906 -69.0625 382.957031 -69.609375 373.34375 -69.609375 C 369.125 -69.753906 364.835938 -69.878906 360.484375 -69.984375 C 320.765625 -71.617188 280.945312 -72.039062 241.03125 -71.25 C 239.050781 -71.25 237.414062 -71.25 236.125 -71.25 C 233.945312 -71.394531 232.359375 -71.378906 231.359375 -71.203125 C 230.367188 -71.035156 229.578125 -70.492188 228.984375 -69.578125 C 228.390625 -68.660156 227.695312 -67.160156 226.90625 -65.078125 C 226.363281 -63.890625 225.71875 -62.398438 224.96875 -60.609375 C 218.320312 -46.128906 212.222656 -31.40625 206.671875 -16.4375 C 203.054688 -6.769531 200.257812 3.144531 198.28125 13.3125 C 197.53125 16.488281 197.265625 19.578125 197.484375 22.578125 C 197.710938 25.578125 199.066406 28.265625 201.546875 30.640625 C 201.890625 30.890625 202.007812 31.195312 201.90625 31.5625 C 201.8125 31.9375 201.59375 32.285156 201.25 32.609375 C 200.90625 32.929688 200.535156 33.144531 200.140625 33.25 C 194.234375 34.132812 190.6875 32.023438 189.5 26.921875 C 188.800781 24.046875 188.675781 21.097656 189.125 18.078125 C 189.125 17.828125 189.125 17.648438 189.125 17.546875 C 189.570312 12.347656 190.5 7.179688 191.90625 2.046875 C 193.320312 -3.085938 194.898438 -8.234375 196.640625 -13.390625 C 202.242188 -28.859375 208.414062 -44.128906 215.15625 -59.203125 C 215.5 -59.847656 215.769531 -60.492188 215.96875 -61.140625 C 216.320312 -61.878906 216.695312 -62.644531 217.09375 -63.4375 C 217.632812 -64.53125 218.128906 -65.617188 218.578125 -66.703125 C 219.023438 -67.796875 219.195312 -68.9375 219.09375 -70.125 C 218.550781 -70.570312 218.003906 -70.84375 217.453125 -70.9375 C 216.910156 -71.039062 216.367188 -71.046875 215.828125 -70.953125 C 215.722656 -70.953125 215.597656 -70.953125 215.453125 -70.953125 C 210.796875 -70.953125 206.109375 -70.898438 201.390625 -70.796875 C 200.109375 -70.796875 198.75 -70.796875 197.3125 -70.796875 C 195.570312 -70.703125 194.109375 -70.15625 192.921875 -69.15625 C 191.734375 -68.164062 190.59375 -66.953125 189.5 -65.515625 C 188.0625 -63.679688 186.625 -61.847656 185.1875 -60.015625 C 179.082031 -52.234375 172.929688 -44.523438 166.734375 -36.890625 C 157.566406 -25.785156 147.988281 -15.078125 138 -4.765625 C 128.007812 5.546875 117.410156 15.21875 106.203125 24.25 C 92.117188 35.84375 77.171875 46.054688 61.359375 54.890625 C 37.160156 67.878906 11.800781 74.023438 -14.71875 73.328125 C -39.707031 72.785156 -62.242188 66.039062 -82.328125 53.09375 C -87.984375 49.476562 -92.992188 45.117188 -97.359375 40.015625 C -100.273438 36.390625 -102.585938 32.484375 -104.296875 28.296875 C -106.015625 24.109375 -106.875 19.5625 -106.875 14.65625 C -106.625 8.75 -105.269531 3.28125 -102.8125 -1.75 C -100.363281 -6.78125 -96.957031 -11.351562 -92.59375 -15.46875 C -86.59375 -21.269531 -80 -26.175781 -72.8125 -30.1875 C -65.820312 -34.257812 -58.617188 -37.816406 -51.203125 -40.859375 C -43.796875 -43.910156 -36.320312 -46.628906 -28.78125 -49.015625 C -16.582031 -52.929688 -4.265625 -56.226562 8.171875 -58.90625 C 20.617188 -61.582031 33.113281 -63.863281 45.65625 -65.75 C 75.40625 -69.863281 105.226562 -72.585938 135.125 -73.921875 C 150.40625 -74.867188 165.628906 -75.34375 180.796875 -75.34375 C 184.960938 -75.238281 188.1875 -77 190.46875 -80.625 C 194.476562 -86.269531 198.519531 -91.945312 202.59375 -97.65625 C 208.882812 -106.375 215.082031 -115.25 221.1875 -124.28125 C 249.539062 -166.613281 276.707031 -209.648438 302.6875 -253.390625 C 304.875 -257.109375 307.007812 -260.875 309.09375 -264.6875 C 310.082031 -266.625 311.117188 -268.582031 312.203125 -270.5625 C 313.492188 -273.09375 315.554688 -274.503906 318.390625 -274.796875 C 319.921875 -274.796875 321.046875 -274.363281 321.765625 -273.5 C 322.484375 -272.632812 322.570312 -271.484375 322.03125 -270.046875 C 321.476562 -268.847656 320.859375 -267.707031 320.171875 -266.625 C 315.953125 -259.082031 312.207031 -251.445312 308.9375 -243.71875 C 307.695312 -240.988281 306.484375 -238.3125 305.296875 -235.6875 C 293.835938 -210.84375 282.332031 -185.976562 270.78125 -161.09375 C 261.957031 -141.90625 253.0625 -122.664062 244.09375 -103.375 C 241.507812 -97.675781 238.953125 -92 236.421875 -86.34375 C 235.878906 -85.15625 235.335938 -84.015625 234.796875 -82.921875 C 234.691406 -82.671875 234.59375 -82.398438 234.5 -82.109375 C 234.144531 -81.316406 233.851562 -80.535156 233.625 -79.765625 C 233.40625 -78.992188 233.472656 -78.238281 233.828125 -77.5 C 234.566406 -76.945312 235.429688 -76.644531 236.421875 -76.59375 C 237.410156 -76.550781 238.328125 -76.53125 239.171875 -76.53125 C 239.867188 -76.625 240.488281 -76.671875 241.03125 -76.671875 C 245.144531 -76.578125 249.285156 -76.578125 253.453125 -76.671875 C 259.109375 -76.671875 264.785156 -76.625 270.484375 -76.53125 C 301.421875 -75.976562 332.382812 -75.304688 363.375 -74.515625 C 373.539062 -74.316406 383.628906 -73.894531 393.640625 -73.25 C 394.535156 -73.15625 395.476562 -73.109375 396.46875 -73.109375 C 397.019531 -73.109375 397.617188 -73.109375 398.265625 -73.109375 C 399.546875 -73.109375 400.796875 -72.992188 402.015625 -72.765625 C 403.234375 -72.546875 404.382812 -72.113281 405.46875 -71.46875 C 405.664062 -71.320312 405.8125 -71.085938 405.90625 -70.765625 C 406.007812 -70.441406 406.015625 -70.179688 405.921875 -69.984375 C 405.921875 -69.640625 405.78125 -69.328125 405.5 -69.046875 C 405.226562 -68.773438 404.992188 -68.59375 404.796875 -68.5 C 403.910156 -68.144531 402.972656 -67.96875 401.984375 -67.96875 Z M 180.28125 -67.15625 C 180.625 -67.851562 180.660156 -68.472656 180.390625 -69.015625 C 180.117188 -69.554688 179.660156 -69.828125 179.015625 -69.828125 C 178.023438 -69.929688 176.984375 -69.929688 175.890625 -69.828125 C 175.335938 -69.828125 174.789062 -69.828125 174.25 -69.828125 C 136.820312 -69.390625 99.363281 -66.8125 61.875 -62.09375 C 47.550781 -60.363281 33.296875 -58.082031 19.109375 -55.25 C 4.929688 -52.425781 -9.125 -48.882812 -23.0625 -44.625 C -30.488281 -42.34375 -37.820312 -39.722656 -45.0625 -36.765625 C -52.300781 -33.816406 -59.367188 -30.3125 -66.265625 -26.25 C -73.453125 -22.238281 -80 -17.332031 -85.90625 -11.53125 C -92.789062 -4.4375 -96.664062 3.109375 -97.53125 11.109375 C -98.40625 19.117188 -96.265625 26.84375 -91.109375 34.28125 C -87.285156 39.488281 -82.722656 43.953125 -77.421875 47.671875 C -58.085938 61.398438 -35.054688 68.390625 -8.328125 68.640625 C -1.484375 68.640625 6.375 67.75 15.25 65.96875 C 24.070312 64.132812 32.597656 61.441406 40.828125 57.890625 C 49.054688 54.347656 57.039062 50.171875 64.78125 45.359375 C 83.863281 33.609375 101.535156 19.925781 117.796875 4.3125 C 129.054688 -6.25 139.664062 -17.367188 149.625 -29.046875 C 159.59375 -40.722656 169.265625 -52.609375 178.640625 -64.703125 C 179.179688 -65.597656 179.726562 -66.414062 180.28125 -67.15625 Z M 225.796875 -82.546875 C 232.984375 -98.910156 240.394531 -115.222656 248.03125 -131.484375 C 248.375 -132.378906 249.523438 -134.945312 251.484375 -139.1875 C 253.441406 -143.425781 255.695312 -148.359375 258.25 -153.984375 C 260.800781 -159.609375 263.144531 -164.925781 265.28125 -169.9375 C 267.414062 -174.945312 268.914062 -178.703125 269.78125 -181.203125 C 270.644531 -183.710938 270.382812 -183.945312 269 -181.90625 C 268.65625 -181.46875 268.382812 -181.023438 268.1875 -180.578125 C 266.988281 -178.835938 265.847656 -177.101562 264.765625 -175.375 C 255.691406 -161.289062 246.566406 -147.234375 237.390625 -133.203125 C 228.222656 -119.171875 218.726562 -105.335938 208.90625 -91.703125 C 207.96875 -90.410156 207.003906 -89.046875 206.015625 -87.609375 C 204.128906 -85.023438 202.269531 -82.421875 200.4375 -79.796875 C 199.6875 -78.710938 199.472656 -77.804688 199.796875 -77.078125 C 200.117188 -76.359375 200.875 -76 202.0625 -76 C 204.050781 -76 206.007812 -76.050781 207.9375 -76.15625 C 211.007812 -76.40625 214.0625 -76.53125 217.09375 -76.53125 C 219.414062 -76.425781 221.222656 -76.921875 222.515625 -78.015625 C 223.804688 -79.109375 224.898438 -80.617188 225.796875 -82.546875 Z M 225.796875 -82.546875 "/></g></g><g style="fill:#000000;fill-opacity:1;"><g transform="translate(412.652763, 474.953639)"><path style="stroke:none" d="M 77.71875 -37.265625 C 79.457031 -38.347656 80.820312 -38.617188 81.8125 -38.078125 C 82.800781 -37.535156 82.425781 -36 80.6875 -33.46875 C 78.507812 -30.539062 74.601562 -27.414062 68.96875 -24.09375 C 63.34375 -20.769531 58.375 -19.316406 54.0625 -19.734375 C 49.75 -20.160156 48.5 -23.347656 50.3125 -29.296875 C 52.125 -35.253906 53.101562 -38.59375 53.25 -39.3125 C 53.394531 -40.03125 53.253906 -40.4375 52.828125 -40.53125 C 52.410156 -40.632812 51.4375 -40.140625 49.90625 -39.046875 C 45.4375 -35.972656 41.070312 -32.75 36.8125 -29.375 C 34.976562 -27.988281 33.171875 -26.523438 31.390625 -24.984375 C 30.296875 -23.992188 29.15625 -23.003906 27.96875 -22.015625 C 27.96875 -22.015625 27.914062 -21.960938 27.8125 -21.859375 C 26.519531 -20.578125 24.9375 -19.710938 23.0625 -19.265625 C 22.21875 -19.015625 21.320312 -18.925781 20.375 -19 C 19.4375 -19.070312 18.644531 -19.429688 18 -20.078125 C 17.25 -20.828125 16.972656 -21.609375 17.171875 -22.421875 C 17.378906 -23.242188 18 -24.472656 19.03125 -26.109375 C 20.070312 -27.742188 21.222656 -29.539062 22.484375 -31.5 C 23.753906 -33.457031 24.460938 -34.65625 24.609375 -35.09375 C 24.765625 -35.539062 24.691406 -35.988281 24.390625 -36.4375 C 24.046875 -36.882812 23.660156 -37.019531 23.234375 -36.84375 C 22.816406 -36.675781 21.242188 -35.613281 18.515625 -33.65625 C 15.785156 -31.695312 12.066406 -28.957031 7.359375 -25.4375 C 5.179688 -23.800781 3.050781 -22.113281 0.96875 -20.375 C 0.425781 -19.832031 -0.164062 -19.335938 -0.8125 -18.890625 C -2.351562 -17.597656 -4.039062 -16.90625 -5.875 -16.8125 C -7.21875 -16.707031 -8.207031 -17 -8.84375 -17.6875 C -9.488281 -18.382812 -9.585938 -19.332031 -9.140625 -20.53125 C -8.847656 -21.414062 -8.476562 -22.234375 -8.03125 -22.984375 C -7.78125 -23.328125 -7.609375 -23.671875 -7.515625 -24.015625 C -3.597656 -31.953125 0.269531 -39.910156 4.09375 -47.890625 C 4.1875 -48.085938 4.285156 -48.363281 4.390625 -48.71875 C 4.835938 -49.5625 5.285156 -50.378906 5.734375 -51.171875 C 6.921875 -52.453125 8.332031 -52.875 9.96875 -52.4375 C 11.851562 -51.882812 12.570312 -50.789062 12.125 -49.15625 C 11.226562 -46.675781 10.359375 -44.222656 9.515625 -41.796875 C 9.066406 -40.703125 8.625 -39.613281 8.1875 -38.53125 C 7.4375 -36.59375 7.195312 -35.347656 7.46875 -34.796875 C 7.75 -34.253906 8.976562 -34.628906 11.15625 -35.921875 C 12.644531 -36.910156 14.109375 -37.898438 15.546875 -38.890625 C 17.273438 -40.085938 18.957031 -41.179688 20.59375 -42.171875 C 23.125 -43.703125 25.703125 -45.015625 28.328125 -46.109375 C 29.617188 -46.648438 30.945312 -47.054688 32.3125 -47.328125 C 33.675781 -47.609375 34.953125 -47.300781 36.140625 -46.40625 C 37.035156 -45.664062 37.421875 -44.820312 37.296875 -43.875 C 37.171875 -42.9375 36.910156 -42.046875 36.515625 -41.203125 C 35.816406 -39.566406 35.53125 -38.523438 35.65625 -38.078125 C 35.78125 -37.628906 36.164062 -37.539062 36.8125 -37.8125 C 37.457031 -38.09375 38.597656 -38.726562 40.234375 -39.71875 C 41.867188 -40.707031 43.628906 -41.796875 45.515625 -42.984375 C 47.890625 -44.523438 50.394531 -45.988281 53.03125 -47.375 C 55.207031 -48.8125 57.535156 -49.679688 60.015625 -49.984375 C 63.441406 -50.222656 64.84375 -48.84375 64.21875 -45.84375 C 63.601562 -42.84375 62.398438 -39.273438 60.609375 -35.140625 C 58.828125 -31.003906 58.640625 -28.460938 60.046875 -27.515625 C 61.460938 -26.578125 64.597656 -27.851562 69.453125 -31.34375 C 74.316406 -34.84375 77.070312 -36.816406 77.71875 -37.265625 Z M 77.71875 -37.265625 "/></g></g><g style="fill:#000000;fill-opacity:1;"><g transform="translate(491.335604, 474.953639)"><path style="stroke:none" d="M 16.21875 -63.0625 C 14.582031 -61.425781 13.128906 -60.644531 11.859375 -60.71875 C 10.597656 -60.789062 10.238281 -62.191406 10.78125 -64.921875 C 11.570312 -68.941406 13.382812 -72.585938 16.21875 -75.859375 C 16.757812 -76.398438 17.414062 -76.71875 18.1875 -76.8125 C 18.957031 -76.914062 19.710938 -76.820312 20.453125 -76.53125 C 20.796875 -76.28125 21.128906 -75.96875 21.453125 -75.59375 C 21.773438 -75.226562 21.9375 -74.867188 21.9375 -74.515625 C 21.289062 -70.054688 19.382812 -66.238281 16.21875 -63.0625 Z M 34.515625 -38.375 C 34.859375 -38.375 35.164062 -38.296875 35.4375 -38.140625 C 35.707031 -37.992188 35.894531 -37.800781 36 -37.5625 C 36 -37.363281 35.945312 -37.101562 35.84375 -36.78125 C 35.75 -36.457031 35.578125 -36.171875 35.328125 -35.921875 C 34.140625 -34.929688 32.828125 -34.015625 31.390625 -33.171875 C 28.910156 -31.734375 26.453125 -30.242188 24.015625 -28.703125 C 17.617188 -24.691406 11.148438 -20.953125 4.609375 -17.484375 C -0.441406 -14.753906 -3.9375 -10.8125 -5.875 -5.65625 C -10.238281 4.613281 -14.828125 14.753906 -19.640625 24.765625 C -21.710938 29.472656 -24 34.054688 -26.5 38.515625 C -29.007812 42.984375 -31.898438 47.300781 -35.171875 51.46875 C -41.523438 59.644531 -49.609375 64.378906 -59.421875 65.671875 C -67.453125 66.660156 -75.238281 66.164062 -82.78125 64.1875 C -88.78125 62.550781 -94.359375 60.144531 -99.515625 56.96875 C -101.441406 55.675781 -103.222656 54.265625 -104.859375 52.734375 C -112.398438 45.890625 -111.535156 38.75 -102.265625 31.3125 C -99.191406 28.925781 -95.96875 26.796875 -92.59375 24.921875 C -87.238281 21.890625 -81.832031 19.0625 -76.375 16.4375 C -69.4375 13.0625 -62.519531 9.738281 -55.625 6.46875 C -44.175781 1.113281 -32.820312 -4.289062 -21.5625 -9.75 C -19.382812 -10.832031 -17.601562 -11.695312 -16.21875 -12.34375 C -14.226562 -13.238281 -12.800781 -13.984375 -11.9375 -14.578125 C -11.070312 -15.171875 -10.363281 -15.898438 -9.8125 -16.765625 C -9.269531 -17.640625 -8.628906 -19.015625 -7.890625 -20.890625 C -7.335938 -22.429688 -6.441406 -24.441406 -5.203125 -26.921875 C -3.367188 -31.085938 -1.632812 -35.226562 0 -39.34375 C 1.1875 -42.320312 2.375 -45.222656 3.5625 -48.046875 C 4.363281 -49.878906 5.359375 -51.515625 6.546875 -52.953125 C 7.734375 -54.242188 9.144531 -54.46875 10.78125 -53.625 C 11.96875 -52.976562 12.414062 -51.984375 12.125 -50.640625 C 11.675781 -49.359375 10.859375 -47.128906 9.671875 -43.953125 C 8.679688 -41.222656 7.664062 -38.382812 6.625 -35.4375 C 5.582031 -32.488281 4.757812 -29.945312 4.15625 -27.8125 C 3.5625 -25.675781 3.363281 -24.410156 3.5625 -24.015625 C 3.8125 -23.671875 4.503906 -23.742188 5.640625 -24.234375 C 6.785156 -24.734375 8.671875 -25.679688 11.296875 -27.078125 C 11.398438 -27.078125 11.453125 -27.078125 11.453125 -27.078125 C 15.617188 -29.398438 19.707031 -31.703125 23.71875 -33.984375 C 25.257812 -34.828125 26.796875 -35.742188 28.328125 -36.734375 C 28.429688 -36.734375 28.484375 -36.734375 28.484375 -36.734375 C 29.472656 -37.285156 30.453125 -37.757812 31.421875 -38.15625 C 32.390625 -38.550781 33.421875 -38.625 34.515625 -38.375 Z M -16.21875 -1.703125 C -15.570312 -2.941406 -15.570312 -4.109375 -16.21875 -5.203125 C -17.5 -5.304688 -18.6875 -4.960938 -19.78125 -4.171875 C -20.03125 -4.066406 -20.300781 -3.96875 -20.59375 -3.875 C -25.207031 -1.6875 -29.796875 0.492188 -34.359375 2.671875 C -46.359375 8.328125 -58.304688 14.003906 -70.203125 19.703125 C -76.753906 22.972656 -83.300781 26.46875 -89.84375 30.1875 C -92.570312 31.832031 -95.125 33.742188 -97.5 35.921875 C -102.113281 40.035156 -102.660156 44.003906 -99.140625 47.828125 C -98.390625 48.816406 -97.570312 49.632812 -96.6875 50.28125 C -92.21875 53.644531 -87.414062 56.253906 -82.28125 58.109375 C -77.15625 59.972656 -71.644531 60.957031 -65.75 61.0625 C -57.164062 61.0625 -49.925781 57.585938 -44.03125 50.640625 C -39.957031 45.929688 -36.5625 40.851562 -33.84375 35.40625 C -29.625 26.675781 -25.484375 17.898438 -21.421875 9.078125 C -19.679688 5.453125 -17.945312 1.859375 -16.21875 -1.703125 Z M -16.21875 -1.703125 "/></g></g><g style="fill:#000000;fill-opacity:1;"><g transform="translate(521.60399, 474.953639)"><path style="stroke:none" d="M 53.953125 -37.890625 C 55.117188 -37.222656 55.207031 -35.597656 54.21875 -33.015625 C 52.78125 -31.128906 51.242188 -29.367188 49.609375 -27.734375 C 47.972656 -26.097656 46.1875 -24.640625 44.25 -23.359375 C 44.101562 -23.359375 44.03125 -23.304688 44.03125 -23.203125 C 42.738281 -22.304688 41.375 -21.535156 39.9375 -20.890625 C 28.082031 -16.628906 22.035156 -19.132812 21.796875 -28.40625 C 16.984375 -24.238281 13.757812 -21.6875 12.125 -20.75 C 8.207031 -18.414062 3.96875 -17.375 -0.59375 -17.625 C -3.96875 -17.820312 -6.257812 -18.847656 -7.46875 -20.703125 C -8.6875 -22.566406 -8.578125 -25.085938 -7.140625 -28.265625 C -4.960938 -33.265625 -1.863281 -37.722656 2.15625 -41.640625 C 6.863281 -46.003906 12.09375 -49.503906 17.84375 -52.140625 C 20.914062 -53.671875 24.140625 -54.265625 27.515625 -53.921875 C 30.890625 -53.722656 32.921875 -51.8125 33.609375 -48.1875 C 33.910156 -47.101562 33.640625 -46.140625 32.796875 -45.296875 C 31.703125 -44.304688 30.4375 -44.082031 29 -44.625 C 28.90625 -44.625 28.769531 -44.644531 28.59375 -44.6875 C 28.414062 -44.738281 28.28125 -44.816406 28.1875 -44.921875 C 26.75 -46.898438 25.296875 -47.726562 23.828125 -47.40625 C 22.367188 -47.082031 20.820312 -46.425781 19.1875 -45.4375 C 11.550781 -40.976562 5.875 -34.757812 2.15625 -26.78125 C 1.957031 -26.425781 1.832031 -26.035156 1.78125 -25.609375 C 1.726562 -25.191406 1.851562 -24.859375 2.15625 -24.609375 C 3.050781 -24.316406 4.039062 -24.378906 5.125 -24.796875 C 6.21875 -25.222656 7.3125 -25.84375 8.40625 -26.65625 C 9.5 -27.476562 10.414062 -28.160156 11.15625 -28.703125 C 11.25 -28.859375 11.296875 -28.9375 11.296875 -28.9375 C 14.921875 -31.957031 18.46875 -35.054688 21.9375 -38.234375 C 23.476562 -39.867188 25.390625 -40.785156 27.671875 -40.984375 C 30.941406 -40.984375 32.300781 -39.519531 31.75 -36.59375 C 31.457031 -35.5 31.140625 -34.40625 30.796875 -33.3125 C 29.503906 -28.601562 29.453125 -25.835938 30.640625 -25.015625 C 31.828125 -24.203125 33.644531 -24.203125 36.09375 -25.015625 C 38.550781 -25.835938 41.007812 -27.398438 43.46875 -29.703125 C 45.925781 -32.015625 47.992188 -34.125 49.671875 -36.03125 C 51.359375 -37.9375 52.785156 -38.554688 53.953125 -37.890625 Z M 53.953125 -37.890625 "/></g></g><g style="fill:#000000;fill-opacity:1;"><g transform="translate(570.910903, 474.953639)"><path style="stroke:none" d="M 66.046875 -39.15625 C 67.085938 -38.882812 67.628906 -38.5 67.671875 -38 C 67.722656 -37.507812 67.75 -37.265625 67.75 -37.265625 C 66.5625 -35.179688 65.195312 -33.269531 63.65625 -31.53125 C 60.132812 -27.613281 56.046875 -24.488281 51.390625 -22.15625 C 49.109375 -20.875 46.53125 -20.179688 43.65625 -20.078125 C 37.007812 -19.984375 33.960938 -23.207031 34.515625 -29.75 C 34.753906 -31.132812 35.070312 -32.5 35.46875 -33.84375 C 35.71875 -34.488281 35.894531 -35.128906 36 -35.765625 C 36.644531 -38.148438 36.828125 -39.476562 36.546875 -39.75 C 36.273438 -40.019531 35.492188 -39.335938 34.203125 -37.703125 C 33.859375 -37.410156 33.539062 -37.085938 33.25 -36.734375 C 31.257812 -34.359375 29.222656 -32.03125 27.140625 -29.75 C 23.328125 -25.382812 18.96875 -21.710938 14.0625 -18.734375 C 11.132812 -17.003906 8.035156 -16.085938 4.765625 -15.984375 C -0.585938 -15.742188 -3.585938 -18.203125 -4.234375 -23.359375 C -4.484375 -25.429688 -4.382812 -27.488281 -3.9375 -29.53125 C -1.757812 -37.957031 2.597656 -44.375 9.140625 -48.78125 C 15.691406 -53.195312 23.179688 -54.757812 31.609375 -53.46875 C 33.984375 -52.78125 35.71875 -53.425781 36.8125 -55.40625 C 37.257812 -56.144531 37.707031 -56.914062 38.15625 -57.71875 C 40.4375 -61.632812 42.664062 -65.550781 44.84375 -69.46875 C 48.957031 -77 53.097656 -84.582031 57.265625 -92.21875 C 60.640625 -98.21875 64.007812 -104.265625 67.375 -110.359375 C 68.375 -112.242188 69.46875 -114.054688 70.65625 -115.796875 C 71.195312 -116.640625 71.875 -117.144531 72.6875 -117.3125 C 73.507812 -117.488281 74.367188 -117.578125 75.265625 -117.578125 C 75.460938 -117.578125 75.6875 -117.578125 75.9375 -117.578125 C 76.925781 -117.578125 77.71875 -117.328125 78.3125 -116.828125 C 78.90625 -116.335938 79.03125 -115.671875 78.6875 -114.828125 C 78.039062 -112.742188 77.269531 -110.757812 76.375 -108.875 C 71.8125 -99.757812 67.507812 -90.523438 63.46875 -81.171875 C 59.4375 -71.828125 55.460938 -62.421875 51.546875 -52.953125 C 50.253906 -49.679688 48.9375 -46.410156 47.59375 -43.140625 C 45.957031 -39.316406 44.59375 -35.398438 43.5 -31.390625 C 43.207031 -30.492188 43.0625 -29.609375 43.0625 -28.734375 C 43.0625 -27.867188 43.484375 -27.113281 44.328125 -26.46875 C 44.867188 -26.125 45.4375 -26.0625 46.03125 -26.28125 C 46.625 -26.507812 47.269531 -26.773438 47.96875 -27.078125 C 48.070312 -27.222656 48.222656 -27.34375 48.421875 -27.4375 C 53.128906 -30.164062 57.441406 -33.441406 61.359375 -37.265625 C 62.003906 -37.910156 62.6875 -38.453125 63.40625 -38.890625 C 64.125 -39.335938 65.003906 -39.425781 66.046875 -39.15625 Z M 29.296875 -43.953125 C 29.847656 -44.847656 30.007812 -45.703125 29.78125 -46.515625 C 29.5625 -47.335938 29.003906 -47.945312 28.109375 -48.34375 C 26.273438 -49.332031 24.316406 -49.457031 22.234375 -48.71875 C 17.128906 -47.175781 12.851562 -44.25 9.40625 -39.9375 C 5.957031 -35.625 4.085938 -30.863281 3.796875 -25.65625 C 3.890625 -25.40625 3.9375 -25.234375 3.9375 -25.140625 C 3.9375 -24.691406 3.9375 -24.242188 3.9375 -23.796875 C 4.382812 -21.421875 5.859375 -20.960938 8.359375 -22.421875 C 10.867188 -23.878906 13.671875 -26.242188 16.765625 -29.515625 C 19.867188 -32.796875 22.644531 -35.910156 25.09375 -38.859375 C 27.550781 -41.804688 28.953125 -43.503906 29.296875 -43.953125 Z M 29.296875 -43.953125 "/></g></g><g style="fill:#000000;fill-opacity:1;"><g transform="translate(485.911418, 486.34658)"><path style="stroke:none" d="M 2.265625 -17.671875 L 6.0625 -17.671875 L 6.0625 0 L 2.265625 0 Z M 2.265625 -17.671875 "/></g></g><g style="fill:#000000;fill-opacity:1;"><g transform="translate(510.402003, 486.34658)"><path style="stroke:none" d="M 2.265625 -17.671875 L 8.71875 -17.671875 C 10.070312 -17.671875 11.316406 -17.4375 12.453125 -16.96875 C 13.597656 -16.507812 14.585938 -15.882812 15.421875 -15.09375 C 16.253906 -14.300781 16.898438 -13.367188 17.359375 -12.296875 C 17.816406 -11.222656 18.046875 -10.070312 18.046875 -8.84375 C 18.046875 -7.613281 17.816406 -6.457031 17.359375 -5.375 C 16.898438 -4.300781 16.253906 -3.367188 15.421875 -2.578125 C 14.585938 -1.785156 13.597656 -1.15625 12.453125 -0.6875 C 11.316406 -0.226562 10.070312 0 8.71875 0 L 2.265625 0 Z M 8.71875 -3.53125 C 9.5 -3.53125 10.222656 -3.664062 10.890625 -3.9375 C 11.554688 -4.207031 12.128906 -4.578125 12.609375 -5.046875 C 13.085938 -5.515625 13.460938 -6.070312 13.734375 -6.71875 C 14.003906 -7.375 14.140625 -8.082031 14.140625 -8.84375 C 14.140625 -9.59375 14.003906 -10.289062 13.734375 -10.9375 C 13.460938 -11.59375 13.085938 -12.15625 12.609375 -12.625 C 12.128906 -13.09375 11.554688 -13.460938 10.890625 -13.734375 C 10.222656 -14.003906 9.5 -14.140625 8.71875 -14.140625 L 6.0625 -14.140625 L 6.0625 -3.53125 Z M 8.71875 -3.53125 "/></g></g><g style="fill:#000000;fill-opacity:1;"><g transform="translate(545.746758, 486.34658)"><path style="stroke:none" d="M 2.265625 -17.671875 L 10.09375 -17.671875 C 11.039062 -17.671875 11.894531 -17.523438 12.65625 -17.234375 C 13.425781 -16.953125 14.078125 -16.550781 14.609375 -16.03125 C 15.148438 -15.507812 15.5625 -14.878906 15.84375 -14.140625 C 16.132812 -13.410156 16.28125 -12.609375 16.28125 -11.734375 C 16.28125 -10.722656 16.125 -9.878906 15.8125 -9.203125 C 15.507812 -8.535156 15.160156 -8.007812 14.765625 -7.625 C 14.328125 -7.164062 13.820312 -6.8125 13.25 -6.5625 L 16.921875 0 L 12.75 0 L 9.59375 -5.8125 L 6.0625 -5.8125 L 6.0625 0 L 2.265625 0 Z M 9.96875 -9.34375 C 10.675781 -9.34375 11.253906 -9.566406 11.703125 -10.015625 C 12.148438 -10.460938 12.375 -11.035156 12.375 -11.734375 C 12.375 -12.441406 12.148438 -13.019531 11.703125 -13.46875 C 11.253906 -13.914062 10.675781 -14.140625 9.96875 -14.140625 L 6.0625 -14.140625 L 6.0625 -9.34375 Z M 9.96875 -9.34375 "/></g></g><g style="fill:#000000;fill-opacity:1;"><g transform="translate(579.703196, 486.34658)"><path style="stroke:none" d="M 2.265625 -17.671875 L 6.0625 -17.671875 L 6.0625 0 L 2.265625 0 Z M 2.265625 -17.671875 "/></g></g><g style="fill:#000000;fill-opacity:1;"><g transform="translate(604.19378, 486.34658)"><path style="stroke:none" d="M 7.328125 0.375 C 6.179688 0.375 5.179688 0.234375 4.328125 -0.046875 C 3.484375 -0.335938 2.773438 -0.660156 2.203125 -1.015625 C 1.523438 -1.410156 0.957031 -1.875 0.5 -2.40625 L 3.03125 -4.921875 C 3.332031 -4.566406 3.691406 -4.25 4.109375 -3.96875 C 4.460938 -3.726562 4.894531 -3.507812 5.40625 -3.3125 C 5.925781 -3.125 6.523438 -3.03125 7.203125 -3.03125 C 8.210938 -3.03125 8.945312 -3.222656 9.40625 -3.609375 C 9.863281 -3.992188 10.09375 -4.472656 10.09375 -5.046875 C 10.09375 -5.554688 9.875 -5.957031 9.4375 -6.25 C 9 -6.539062 8.453125 -6.800781 7.796875 -7.03125 C 7.140625 -7.269531 6.429688 -7.515625 5.671875 -7.765625 C 4.921875 -8.023438 4.21875 -8.359375 3.5625 -8.765625 C 2.90625 -9.179688 2.359375 -9.710938 1.921875 -10.359375 C 1.484375 -11.015625 1.265625 -11.851562 1.265625 -12.875 C 1.265625 -13.5625 1.410156 -14.222656 1.703125 -14.859375 C 1.992188 -15.492188 2.410156 -16.046875 2.953125 -16.515625 C 3.503906 -16.984375 4.179688 -17.351562 4.984375 -17.625 C 5.785156 -17.90625 6.691406 -18.046875 7.703125 -18.046875 C 8.679688 -18.046875 9.539062 -17.921875 10.28125 -17.671875 C 11.03125 -17.421875 11.648438 -17.144531 12.140625 -16.84375 C 12.710938 -16.488281 13.210938 -16.09375 13.640625 -15.65625 L 11.109375 -13.125 C 10.835938 -13.414062 10.539062 -13.671875 10.21875 -13.890625 C 9.9375 -14.078125 9.59375 -14.25 9.1875 -14.40625 C 8.78125 -14.5625 8.328125 -14.640625 7.828125 -14.640625 C 6.867188 -14.640625 6.1875 -14.472656 5.78125 -14.140625 C 5.375 -13.804688 5.171875 -13.382812 5.171875 -12.875 C 5.171875 -12.375 5.390625 -11.972656 5.828125 -11.671875 C 6.265625 -11.378906 6.8125 -11.113281 7.46875 -10.875 C 8.125 -10.644531 8.832031 -10.398438 9.59375 -10.140625 C 10.351562 -9.890625 11.0625 -9.554688 11.71875 -9.140625 C 12.375 -8.734375 12.921875 -8.207031 13.359375 -7.5625 C 13.796875 -6.914062 14.015625 -6.078125 14.015625 -5.046875 C 14.015625 -4.328125 13.863281 -3.640625 13.5625 -2.984375 C 13.257812 -2.328125 12.816406 -1.75 12.234375 -1.25 C 11.648438 -0.75 10.945312 -0.351562 10.125 -0.0625 C 9.300781 0.226562 8.367188 0.375 7.328125 0.375 Z M 7.328125 0.375 "/></g></g></g></svg>