<svg xmlns="http://www.w3.org/2000/svg" xmlns:xlink="http://www.w3.org/1999/xlink" width="1080" zoomAndPan="magnify" viewBox="0 0 810 809.999993" height="1080" preserveAspectRatio="xMidYMid meet" version="1.2"><defs><clipPath id="6f2057feaf"><path d="M 264.261719 193.449219 L 545.480469 193.449219 L 545.480469 516.945312 L 264.261719 516.945312 Z M 264.261719 193.449219 "/></clipPath></defs><g id="10a53da53f"><rect x="0" width="810" y="0" height="809.999993" style="fill:#ffffff;fill-opacity:1;stroke:none;"/><rect x="0" width="810" y="0" height="809.999993" style="fill:#151515;fill-opacity:1;stroke:none;"/><path style=" stroke:none;fill-rule:nonzero;fill:#ffffff;fill-opacity:1;" d="M 447.761719 356.714844 L 412.898438 269.929688 L 388.886719 210.15625 C 388.320312 208.742188 386.5 208.414062 385.34375 209.164062 L 385.335938 208.773438 L 385.109375 209.332031 C 384.859375 209.546875 384.648438 209.820312 384.515625 210.15625 L 360.5 269.929688 L 360.601562 270.175781 L 286.859375 453.246094 C 296.609375 443.140625 308.679688 433.839844 322.929688 425.476562 C 333.058594 419.535156 344.5 413.953125 357.117188 408.785156 L 386.773438 335.324219 L 408.027344 388.230469 C 447.195312 373.074219 494.878906 347.042969 510.269531 296.992188 C 511.039062 294.484375 511.707031 292.054688 512.285156 289.671875 C 498.84375 322.699219 466.527344 345.648438 447.761719 356.714844 "/><g clip-rule="nonzero" clip-path="url(#6f2057feaf)"><path style=" stroke:none;fill-rule:nonzero;fill:#004aad;fill-opacity:1;" d="M 545.402344 298.023438 C 544.226562 327.28125 529.367188 356.246094 505.746094 376.605469 C 494.03125 386.703125 480.695312 395.503906 466.425781 403.226562 C 461.167969 406.066406 455.78125 408.765625 450.300781 411.328125 C 450.25 411.351562 450.199219 411.375 450.144531 411.402344 C 440.988281 415.679688 431.570312 419.570312 422.050781 423.132812 C 409.03125 428.003906 395.820312 432.257812 382.828125 436.007812 C 350.863281 445.230469 316.425781 462.265625 289.816406 483.964844 C 316.207031 459.976562 351.992188 440.742188 385.296875 430.207031 C 428.542969 416.527344 474.074219 397.167969 506.363281 367.765625 C 536.699219 340.136719 551.339844 297.90625 539.542969 260.453125 C 527.75 223.003906 487.886719 193.175781 444.835938 193.453125 C 444.835938 193.453125 484.976562 202.113281 502.601562 233.296875 C 518.320312 261.113281 519.703125 277.878906 513.300781 301.164062 C 496.03125 363.996094 427.5 390.789062 387.410156 404.984375 C 347.316406 419.179688 306.855469 440.945312 283.949219 473.921875 C 272.917969 489.796875 266.0625 512.097656 264.261719 516.945312 C 290.890625 483.222656 330.078125 461.648438 382.828125 443.476562 C 396.421875 438.792969 410.792969 434.90625 424.65625 429.621094 L 454.339844 503.511719 L 506.734375 503.511719 L 468.902344 409.335938 C 482.234375 401.945312 494.710938 393.585938 505.746094 384.070312 C 531.378906 361.984375 546.691406 329.757812 545.402344 298.023438 "/></g><g style="fill:#ffffff;fill-opacity:1;"><g transform="translate(191.833572, 573.264183)"><path style="stroke:none" d="M 46.453125 -0.625 L 47.03125 -0.625 L 47.03125 0 L 26.9375 0 L 26.9375 -0.625 L 27.515625 -0.625 C 28.429688 -0.625 29.109375 -0.90625 29.546875 -1.46875 C 29.992188 -2.039062 30.21875 -2.578125 30.21875 -3.078125 C 30.21875 -3.585938 30.113281 -4.09375 29.90625 -4.59375 L 26.8125 -12.34375 L 12.09375 -12.34375 L 8.8125 -4.59375 C 8.601562 -4.050781 8.5 -3.535156 8.5 -3.046875 C 8.5 -2.566406 8.726562 -2.039062 9.1875 -1.46875 C 9.65625 -0.90625 10.347656 -0.625 11.265625 -0.625 L 11.765625 -0.625 L 11.765625 0 L -1.703125 0 L -1.703125 -0.625 L -1.140625 -0.625 C -0.171875 -0.625 0.789062 -0.914062 1.75 -1.5 C 2.71875 -2.09375 3.519531 -2.976562 4.15625 -4.15625 L 18.703125 -37.078125 C 20.671875 -41.234375 21.71875 -43.984375 21.84375 -45.328125 L 22.40625 -45.328125 L 41.109375 -4.28125 C 41.734375 -3.0625 42.53125 -2.144531 43.5 -1.53125 C 44.46875 -0.925781 45.453125 -0.625 46.453125 -0.625 Z M 13.15625 -14.984375 L 25.75 -14.984375 L 19.640625 -30.46875 Z M 13.15625 -14.984375 "/></g></g><g style="fill:#ffffff;fill-opacity:1;"><g transform="translate(236.907956, 573.264183)"><path style="stroke:none" d="M 59.609375 -0.625 L 60.625 -0.625 L 60.625 0 L 41.734375 0 L 41.734375 -0.5625 L 42.6875 -0.5625 C 43.394531 -0.601562 44 -0.894531 44.5 -1.4375 C 45.007812 -1.988281 45.222656 -2.601562 45.140625 -3.28125 L 42.6875 -26.125 L 30.84375 -5.734375 C 29.289062 -3.128906 28.492188 -0.796875 28.453125 1.265625 L 27.828125 1.265625 L 11.640625 -25.9375 L 9.1875 -3.28125 C 9.101562 -2.601562 9.3125 -1.976562 9.8125 -1.40625 C 10.320312 -0.84375 10.929688 -0.5625 11.640625 -0.5625 L 12.59375 -0.5625 L 12.59375 0 L -0.5625 0 L -0.5625 -0.625 L 0.4375 -0.625 C 1.613281 -0.625 2.628906 -0.976562 3.484375 -1.6875 C 4.347656 -2.40625 4.863281 -3.375 5.03125 -4.59375 L 10.265625 -44.953125 L 10.828125 -44.953125 L 30.34375 -12.84375 L 49.109375 -44.953125 L 49.671875 -44.953125 L 55.015625 -4.59375 C 55.222656 -3.375 55.757812 -2.40625 56.625 -1.6875 C 57.488281 -0.976562 58.484375 -0.625 59.609375 -0.625 Z M 59.609375 -0.625 "/></g></g><g style="fill:#ffffff;fill-opacity:1;"><g transform="translate(296.902219, 573.264183)"><path style="stroke:none" d="M 21.15625 -43.4375 C 19.644531 -43.4375 18.488281 -42.785156 17.6875 -41.484375 C 17.3125 -40.898438 17.125 -40.226562 17.125 -39.46875 L 17.125 -1.890625 C 17.125 1.085938 16.328125 3.75 14.734375 6.09375 C 13.140625 8.445312 11.1875 10.128906 8.875 11.140625 C 6.5625 12.148438 4.253906 12.65625 1.953125 12.65625 C 1.410156 12.65625 0.863281 12.632812 0.3125 12.59375 L 0.3125 12.03125 C 2.832031 10.976562 4.691406 9.160156 5.890625 6.578125 C 7.085938 3.992188 7.6875 1.109375 7.6875 -2.078125 L 7.6875 -39.46875 C 7.644531 -41.019531 6.972656 -42.175781 5.671875 -42.9375 C 5.035156 -43.269531 4.363281 -43.4375 3.65625 -43.4375 L 2.828125 -43.4375 L 2.828125 -44.0625 L 21.96875 -44.0625 L 21.96875 -43.4375 Z M 21.15625 -43.4375 "/></g></g><g style="fill:#ffffff;fill-opacity:1;"><g transform="translate(321.076191, 573.264183)"><path style="stroke:none" d="M 46.453125 -0.625 L 47.03125 -0.625 L 47.03125 0 L 26.9375 0 L 26.9375 -0.625 L 27.515625 -0.625 C 28.429688 -0.625 29.109375 -0.90625 29.546875 -1.46875 C 29.992188 -2.039062 30.21875 -2.578125 30.21875 -3.078125 C 30.21875 -3.585938 30.113281 -4.09375 29.90625 -4.59375 L 26.8125 -12.34375 L 12.09375 -12.34375 L 8.8125 -4.59375 C 8.601562 -4.050781 8.5 -3.535156 8.5 -3.046875 C 8.5 -2.566406 8.726562 -2.039062 9.1875 -1.46875 C 9.65625 -0.90625 10.347656 -0.625 11.265625 -0.625 L 11.765625 -0.625 L 11.765625 0 L -1.703125 0 L -1.703125 -0.625 L -1.140625 -0.625 C -0.171875 -0.625 0.789062 -0.914062 1.75 -1.5 C 2.71875 -2.09375 3.519531 -2.976562 4.15625 -4.15625 L 18.703125 -37.078125 C 20.671875 -41.234375 21.71875 -43.984375 21.84375 -45.328125 L 22.40625 -45.328125 L 41.109375 -4.28125 C 41.734375 -3.0625 42.53125 -2.144531 43.5 -1.53125 C 44.46875 -0.925781 45.453125 -0.625 46.453125 -0.625 Z M 13.15625 -14.984375 L 25.75 -14.984375 L 19.640625 -30.46875 Z M 13.15625 -14.984375 "/></g></g><g style="fill:#ffffff;fill-opacity:1;"><g transform="translate(366.150575, 573.264183)"><path style="stroke:none" d="M 25.5 -44.0625 C 32.925781 -44.0625 38.800781 -42.085938 43.125 -38.140625 C 47.445312 -34.203125 49.609375 -28.832031 49.609375 -22.03125 C 49.609375 -15.226562 47.445312 -9.851562 43.125 -5.90625 C 38.800781 -1.96875 32.925781 0 25.5 0 L 2.640625 0 L 2.640625 -0.625 L 3.46875 -0.625 C 4.550781 -0.625 5.476562 -1.007812 6.25 -1.78125 C 7.03125 -2.5625 7.441406 -3.5 7.484375 -4.59375 L 7.484375 -39.84375 C 7.484375 -40.851562 7.070312 -41.703125 6.25 -42.390625 C 5.4375 -43.085938 4.507812 -43.4375 3.46875 -43.4375 L 2.640625 -43.4375 L 2.640625 -44.0625 Z M 24.671875 -2.703125 C 27.691406 -2.703125 30.304688 -3.476562 32.515625 -5.03125 C 34.722656 -6.582031 36.410156 -8.816406 37.578125 -11.734375 C 38.753906 -14.648438 39.34375 -17.828125 39.34375 -21.265625 C 39.34375 -24.710938 38.992188 -27.644531 38.296875 -30.0625 C 37.609375 -32.476562 36.632812 -34.523438 35.375 -36.203125 C 32.78125 -39.679688 29.210938 -41.421875 24.671875 -41.421875 L 16.9375 -41.421875 L 16.9375 -2.703125 Z M 24.671875 -2.703125 "/></g></g><g style="fill:#ffffff;fill-opacity:1;"><g transform="translate(418.275699, 573.264183)"><path style="stroke:none" d=""/></g></g><g style="fill:#ffffff;fill-opacity:1;"><g transform="translate(434.013956, 573.264183)"><path style="stroke:none" d="M 3.46875 -0.625 C 4.550781 -0.625 5.476562 -1.007812 6.25 -1.78125 C 7.03125 -2.5625 7.441406 -3.5 7.484375 -4.59375 L 7.484375 -39.53125 C 7.441406 -40.625 7.03125 -41.546875 6.25 -42.296875 C 5.476562 -43.054688 4.550781 -43.4375 3.46875 -43.4375 L 2.640625 -43.4375 L 2.640625 -44.0625 L 21.78125 -44.0625 L 21.71875 -43.4375 L 20.96875 -43.4375 C 19.875 -43.4375 18.925781 -43.054688 18.125 -42.296875 C 17.332031 -41.546875 16.9375 -40.625 16.9375 -39.53125 L 16.9375 -4.59375 C 16.9375 -3.5 17.332031 -2.5625 18.125 -1.78125 C 18.925781 -1.007812 19.875 -0.625 20.96875 -0.625 L 21.71875 -0.625 L 21.78125 0 L 2.640625 0 L 2.640625 -0.625 Z M 3.46875 -0.625 "/></g></g><g style="fill:#ffffff;fill-opacity:1;"><g transform="translate(458.313835, 573.264183)"><path style="stroke:none" d="M 25.5 -44.0625 C 32.925781 -44.0625 38.800781 -42.085938 43.125 -38.140625 C 47.445312 -34.203125 49.609375 -28.832031 49.609375 -22.03125 C 49.609375 -15.226562 47.445312 -9.851562 43.125 -5.90625 C 38.800781 -1.96875 32.925781 0 25.5 0 L 2.640625 0 L 2.640625 -0.625 L 3.46875 -0.625 C 4.550781 -0.625 5.476562 -1.007812 6.25 -1.78125 C 7.03125 -2.5625 7.441406 -3.5 7.484375 -4.59375 L 7.484375 -39.84375 C 7.484375 -40.851562 7.070312 -41.703125 6.25 -42.390625 C 5.4375 -43.085938 4.507812 -43.4375 3.46875 -43.4375 L 2.640625 -43.4375 L 2.640625 -44.0625 Z M 24.671875 -2.703125 C 27.691406 -2.703125 30.304688 -3.476562 32.515625 -5.03125 C 34.722656 -6.582031 36.410156 -8.816406 37.578125 -11.734375 C 38.753906 -14.648438 39.34375 -17.828125 39.34375 -21.265625 C 39.34375 -24.710938 38.992188 -27.644531 38.296875 -30.0625 C 37.609375 -32.476562 36.632812 -34.523438 35.375 -36.203125 C 32.78125 -39.679688 29.210938 -41.421875 24.671875 -41.421875 L 16.9375 -41.421875 L 16.9375 -2.703125 Z M 24.671875 -2.703125 "/></g></g><g style="fill:#ffffff;fill-opacity:1;"><g transform="translate(510.438948, 573.264183)"><path style="stroke:none" d="M 20.015625 -41.296875 L 17.3125 -41.296875 C 17.226562 -41.296875 17.164062 -41.296875 17.125 -41.296875 L 17.125 -4.59375 C 17.164062 -3.5 17.570312 -2.5625 18.34375 -1.78125 C 19.125 -1.007812 20.0625 -0.625 21.15625 -0.625 L 21.96875 -0.625 L 21.96875 0 L 2.828125 0 L 2.828125 -0.625 L 3.65625 -0.625 C 5.164062 -0.625 6.316406 -1.273438 7.109375 -2.578125 C 7.453125 -3.171875 7.644531 -3.820312 7.6875 -4.53125 L 7.6875 -39.46875 C 7.644531 -40.5625 7.234375 -41.492188 6.453125 -42.265625 C 5.671875 -43.046875 4.738281 -43.4375 3.65625 -43.4375 L 2.828125 -43.4375 L 2.828125 -44.0625 L 24.421875 -44.0625 C 28.492188 -44.0625 31.9375 -43.179688 34.75 -41.421875 C 36.175781 -40.535156 37.304688 -39.304688 38.140625 -37.734375 C 38.984375 -36.160156 39.40625 -34.101562 39.40625 -31.5625 C 39.40625 -29.03125 38.523438 -26.585938 36.765625 -24.234375 C 35.003906 -21.890625 32.441406 -20.546875 29.078125 -20.203125 C 31.515625 -19.410156 33.65625 -17.566406 35.5 -14.671875 C 40.03125 -7.410156 43.390625 -3.085938 45.578125 -1.703125 C 46.671875 -1.023438 48.035156 -0.664062 49.671875 -0.625 L 49.671875 0 L 43.5 0 C 39.851562 0 36.820312 -0.476562 34.40625 -1.4375 C 31.988281 -2.40625 30.085938 -4.109375 28.703125 -6.546875 C 27.910156 -7.929688 26.171875 -11.519531 23.484375 -17.3125 C 22.304688 -19.875 20.878906 -21.28125 19.203125 -21.53125 L 19.203125 -22.15625 L 21.15625 -22.15625 C 23.039062 -22.15625 24.707031 -22.722656 26.15625 -23.859375 C 27.601562 -24.992188 28.578125 -26.84375 29.078125 -29.40625 C 29.253906 -30.28125 29.34375 -30.972656 29.34375 -31.484375 C 29.34375 -34.921875 28.648438 -37.40625 27.265625 -38.9375 C 25.878906 -40.46875 24.09375 -41.253906 21.90625 -41.296875 C 21.488281 -41.296875 20.859375 -41.296875 20.015625 -41.296875 Z M 20.015625 -41.296875 "/></g></g><g style="fill:#ffffff;fill-opacity:1;"><g transform="translate(557.464892, 573.264183)"><path style="stroke:none" d="M 3.46875 -0.625 C 4.550781 -0.625 5.476562 -1.007812 6.25 -1.78125 C 7.03125 -2.5625 7.441406 -3.5 7.484375 -4.59375 L 7.484375 -39.53125 C 7.441406 -40.625 7.03125 -41.546875 6.25 -42.296875 C 5.476562 -43.054688 4.550781 -43.4375 3.46875 -43.4375 L 2.640625 -43.4375 L 2.640625 -44.0625 L 21.78125 -44.0625 L 21.71875 -43.4375 L 20.96875 -43.4375 C 19.875 -43.4375 18.925781 -43.054688 18.125 -42.296875 C 17.332031 -41.546875 16.9375 -40.625 16.9375 -39.53125 L 16.9375 -4.59375 C 16.9375 -3.5 17.332031 -2.5625 18.125 -1.78125 C 18.925781 -1.007812 19.875 -0.625 20.96875 -0.625 L 21.71875 -0.625 L 21.78125 0 L 2.640625 0 L 2.640625 -0.625 Z M 3.46875 -0.625 "/></g></g><g style="fill:#ffffff;fill-opacity:1;"><g transform="translate(581.764795, 573.264183)"><path style="stroke:none" d="M 3.140625 -5.859375 C 3.140625 -8.878906 3.789062 -11.457031 5.09375 -13.59375 L 5.671875 -13.59375 C 5.628906 -13.257812 5.609375 -12.925781 5.609375 -12.59375 C 5.609375 -9.695312 6.644531 -7.164062 8.71875 -5 C 10.789062 -2.84375 13.632812 -1.765625 17.25 -1.765625 C 20.0625 -1.765625 22.253906 -2.4375 23.828125 -3.78125 C 25.398438 -5.125 26.1875 -6.820312 26.1875 -8.875 C 26.1875 -10.09375 25.796875 -11.179688 25.015625 -12.140625 C 24.242188 -13.109375 22.957031 -14.179688 21.15625 -15.359375 L 10.203125 -22.59375 C 6.128906 -25.320312 4.09375 -28.679688 4.09375 -32.671875 C 4.09375 -33.085938 4.132812 -33.507812 4.21875 -33.9375 C 4.46875 -37.25 5.753906 -39.910156 8.078125 -41.921875 C 10.410156 -43.941406 13.53125 -44.953125 17.4375 -44.953125 C 19.75 -44.953125 22.601562 -44.738281 26 -44.3125 L 29.96875 -44.3125 L 29.140625 -35.0625 L 28.515625 -35.0625 C 28.515625 -37.25 27.707031 -39 26.09375 -40.3125 C 24.476562 -41.632812 22.328125 -42.296875 19.640625 -42.296875 C 16.367188 -42.296875 14 -41.289062 12.53125 -39.28125 C 11.769531 -38.3125 11.390625 -37.34375 11.390625 -36.375 C 11.390625 -35.414062 11.582031 -34.601562 11.96875 -33.9375 C 12.550781 -32.84375 13.828125 -31.664062 15.796875 -30.40625 L 27.828125 -22.59375 C 31.597656 -20.125 33.484375 -16.894531 33.484375 -12.90625 C 33.484375 -8.457031 31.960938 -5.046875 28.921875 -2.671875 C 25.878906 -0.304688 21.84375 0.875 16.8125 0.875 C 13.957031 0.875 11.320312 0.53125 8.90625 -0.15625 C 6.488281 -0.851562 4.71875 -1.785156 3.59375 -2.953125 C 3.289062 -3.753906 3.140625 -4.722656 3.140625 -5.859375 Z M 3.140625 -5.859375 "/></g></g><g style="fill:#ffffff;fill-opacity:1;"><g transform="translate(324.523201, 603.590846)"><path style="stroke:none" d="M 8.578125 -15.0625 C 10.878906 -15.0625 12.742188 -14.367188 14.171875 -12.984375 C 15.597656 -11.597656 16.3125 -9.78125 16.3125 -7.53125 C 16.3125 -5.28125 15.597656 -3.460938 14.171875 -2.078125 C 12.742188 -0.691406 10.878906 0 8.578125 0 L 1.296875 0 L 1.296875 -0.21875 L 1.578125 -0.21875 C 1.941406 -0.21875 2.253906 -0.347656 2.515625 -0.609375 C 2.785156 -0.878906 2.929688 -1.203125 2.953125 -1.578125 L 2.953125 -13.625 C 2.953125 -13.96875 2.8125 -14.253906 2.53125 -14.484375 C 2.25 -14.722656 1.929688 -14.84375 1.578125 -14.84375 L 1.3125 -14.84375 L 1.296875 -15.0625 Z M 4.34375 -14.421875 L 4.34375 -0.640625 L 8.578125 -0.640625 C 9.785156 -0.640625 10.851562 -0.925781 11.78125 -1.5 C 12.707031 -2.070312 13.421875 -2.878906 13.921875 -3.921875 C 14.429688 -4.960938 14.6875 -6.164062 14.6875 -7.53125 C 14.6875 -9.59375 14.125 -11.253906 13 -12.515625 C 11.875 -13.785156 10.398438 -14.421875 8.578125 -14.421875 Z M 4.34375 -14.421875 "/></g></g><g style="fill:#ffffff;fill-opacity:1;"><g transform="translate(352.054331, 603.590846)"><path style="stroke:none" d="M 5.71875 -14.390625 L 4.34375 -14.390625 L 4.34375 -1.578125 C 4.34375 -1.203125 4.472656 -0.878906 4.734375 -0.609375 C 5.003906 -0.347656 5.332031 -0.21875 5.71875 -0.21875 L 5.984375 -0.21875 L 6 0 L 1.296875 0 L 1.296875 -0.21875 L 1.578125 -0.21875 C 1.941406 -0.21875 2.253906 -0.34375 2.515625 -0.59375 C 2.785156 -0.851562 2.929688 -1.171875 2.953125 -1.546875 L 2.953125 -13.484375 C 2.929688 -13.859375 2.785156 -14.175781 2.515625 -14.4375 C 2.253906 -14.707031 1.941406 -14.84375 1.578125 -14.84375 L 1.296875 -14.84375 L 1.296875 -15.0625 L 7.09375 -15.0625 C 8.40625 -15.0625 9.429688 -14.695312 10.171875 -13.96875 C 10.921875 -13.25 11.296875 -12.3125 11.296875 -11.15625 C 11.296875 -10 10.941406 -9 10.234375 -8.15625 C 9.523438 -7.320312 8.660156 -6.90625 7.640625 -6.90625 C 7.847656 -6.800781 8.097656 -6.601562 8.390625 -6.3125 C 8.691406 -6.019531 8.957031 -5.71875 9.1875 -5.40625 C 10.414062 -3.632812 11.21875 -2.546875 11.59375 -2.140625 C 11.96875 -1.734375 12.234375 -1.453125 12.390625 -1.296875 C 12.546875 -1.148438 12.71875 -1.003906 12.90625 -0.859375 C 13.09375 -0.710938 13.28125 -0.597656 13.46875 -0.515625 C 13.882812 -0.316406 14.328125 -0.21875 14.796875 -0.21875 L 14.796875 0 L 13.625 0 C 13 0 12.421875 -0.109375 11.890625 -0.328125 C 11.367188 -0.554688 10.972656 -0.785156 10.703125 -1.015625 C 10.441406 -1.253906 10.210938 -1.484375 10.015625 -1.703125 C 9.816406 -1.929688 9.28125 -2.675781 8.40625 -3.9375 C 7.53125 -5.195312 7.019531 -5.914062 6.875 -6.09375 C 6.738281 -6.28125 6.59375 -6.457031 6.4375 -6.625 C 5.976562 -7.113281 5.519531 -7.359375 5.0625 -7.359375 L 5.0625 -7.578125 C 5.175781 -7.554688 5.320312 -7.546875 5.5 -7.546875 C 5.6875 -7.546875 5.921875 -7.554688 6.203125 -7.578125 C 7.972656 -7.617188 9.085938 -8.363281 9.546875 -9.8125 C 9.640625 -10.09375 9.6875 -10.359375 9.6875 -10.609375 C 9.6875 -10.867188 9.6875 -11.035156 9.6875 -11.109375 C 9.65625 -12.066406 9.398438 -12.835938 8.921875 -13.421875 C 8.453125 -14.015625 7.816406 -14.332031 7.015625 -14.375 C 6.671875 -14.382812 6.238281 -14.390625 5.71875 -14.390625 Z M 5.71875 -14.390625 "/></g></g><g style="fill:#ffffff;fill-opacity:1;"><g transform="translate(376.789945, 603.590846)"><path style="stroke:none" d="M 2.625 -0.1875 C 2.4375 0 2.207031 0.09375 1.9375 0.09375 C 1.664062 0.09375 1.4375 0 1.25 -0.1875 C 1.0625 -0.375 0.96875 -0.601562 0.96875 -0.875 C 0.96875 -1.15625 1.0625 -1.382812 1.25 -1.5625 C 1.4375 -1.75 1.664062 -1.84375 1.9375 -1.84375 C 2.207031 -1.84375 2.4375 -1.75 2.625 -1.5625 C 2.8125 -1.382812 2.90625 -1.15625 2.90625 -0.875 C 2.90625 -0.601562 2.8125 -0.375 2.625 -0.1875 Z M 2.625 -0.1875 "/></g></g><g style="fill:#ffffff;fill-opacity:1;"><g transform="translate(390.816567, 603.590846)"><path style="stroke:none" d="M 8.96875 0.296875 C 6.707031 0.285156 4.863281 -0.429688 3.4375 -1.859375 C 2.007812 -3.296875 1.296875 -5.1875 1.296875 -7.53125 C 1.296875 -9.882812 2.007812 -11.773438 3.4375 -13.203125 C 4.863281 -14.640625 6.75 -15.359375 9.09375 -15.359375 C 11.019531 -15.359375 12.722656 -14.875 14.203125 -13.90625 L 14.625 -10.859375 L 14.4375 -10.859375 C 14.125 -12.097656 13.484375 -13.050781 12.515625 -13.71875 C 11.554688 -14.382812 10.414062 -14.71875 9.09375 -14.71875 C 7.21875 -14.71875 5.71875 -14.0625 4.59375 -12.75 C 3.46875 -11.445312 2.90625 -9.71875 2.90625 -7.5625 C 2.90625 -5.414062 3.457031 -3.6875 4.5625 -2.375 C 5.675781 -1.0625 7.144531 -0.382812 8.96875 -0.34375 C 10.570312 -0.34375 11.914062 -0.78125 13 -1.65625 C 14.15625 -2.601562 14.859375 -4.144531 15.109375 -6.28125 L 15.28125 -6.28125 L 15.015625 -2.90625 C 13.710938 -0.769531 11.695312 0.296875 8.96875 0.296875 Z M 8.96875 0.296875 "/></g></g><g style="fill:#ffffff;fill-opacity:1;"><g transform="translate(417.337013, 603.590846)"><path style="stroke:none" d="M 3.640625 -13.1875 C 5.066406 -14.632812 6.925781 -15.359375 9.21875 -15.359375 C 11.519531 -15.359375 13.382812 -14.632812 14.8125 -13.1875 C 16.25 -11.75 16.96875 -9.859375 16.96875 -7.515625 C 16.96875 -5.179688 16.25 -3.296875 14.8125 -1.859375 C 13.382812 -0.421875 11.519531 0.296875 9.21875 0.296875 C 6.925781 0.296875 5.066406 -0.421875 3.640625 -1.859375 C 2.210938 -3.296875 1.5 -5.179688 1.5 -7.515625 C 1.5 -9.859375 2.210938 -11.75 3.640625 -13.1875 Z M 4.828125 -2.3125 C 5.941406 -1 7.410156 -0.34375 9.234375 -0.34375 C 11.066406 -0.34375 12.535156 -1 13.640625 -2.3125 C 14.753906 -3.632812 15.3125 -5.375 15.3125 -7.53125 C 15.3125 -8.945312 15.0625 -10.203125 14.5625 -11.296875 C 14.0625 -12.390625 13.347656 -13.234375 12.421875 -13.828125 C 11.492188 -14.421875 10.429688 -14.71875 9.234375 -14.71875 C 7.410156 -14.71875 5.941406 -14.054688 4.828125 -12.734375 C 3.710938 -11.410156 3.15625 -9.671875 3.15625 -7.515625 C 3.15625 -5.367188 3.710938 -3.632812 4.828125 -2.3125 Z M 4.828125 -2.3125 "/></g></g><g style="fill:#ffffff;fill-opacity:1;"><g transform="translate(445.534762, 603.590846)"><path style="stroke:none" d="M 8.578125 -15.0625 C 10.878906 -15.0625 12.742188 -14.367188 14.171875 -12.984375 C 15.597656 -11.597656 16.3125 -9.78125 16.3125 -7.53125 C 16.3125 -5.28125 15.597656 -3.460938 14.171875 -2.078125 C 12.742188 -0.691406 10.878906 0 8.578125 0 L 1.296875 0 L 1.296875 -0.21875 L 1.578125 -0.21875 C 1.941406 -0.21875 2.253906 -0.347656 2.515625 -0.609375 C 2.785156 -0.878906 2.929688 -1.203125 2.953125 -1.578125 L 2.953125 -13.625 C 2.953125 -13.96875 2.8125 -14.253906 2.53125 -14.484375 C 2.25 -14.722656 1.929688 -14.84375 1.578125 -14.84375 L 1.3125 -14.84375 L 1.296875 -15.0625 Z M 4.34375 -14.421875 L 4.34375 -0.640625 L 8.578125 -0.640625 C 9.785156 -0.640625 10.851562 -0.925781 11.78125 -1.5 C 12.707031 -2.070312 13.421875 -2.878906 13.921875 -3.921875 C 14.429688 -4.960938 14.6875 -6.164062 14.6875 -7.53125 C 14.6875 -9.59375 14.125 -11.253906 13 -12.515625 C 11.875 -13.785156 10.398438 -14.421875 8.578125 -14.421875 Z M 4.34375 -14.421875 "/></g></g><g style="fill:#ffffff;fill-opacity:1;"><g transform="translate(473.065892, 603.590846)"><path style="stroke:none" d="M 1.578125 -0.21875 C 1.941406 -0.21875 2.253906 -0.347656 2.515625 -0.609375 C 2.785156 -0.878906 2.929688 -1.203125 2.953125 -1.578125 L 2.953125 -13.625 C 2.910156 -13.96875 2.757812 -14.253906 2.5 -14.484375 C 2.238281 -14.722656 1.929688 -14.84375 1.578125 -14.84375 L 1.3125 -14.84375 L 1.296875 -15.0625 L 7.59375 -15.0625 C 8.039062 -15.0625 8.523438 -15.101562 9.046875 -15.1875 C 9.566406 -15.269531 9.9375 -15.359375 10.15625 -15.453125 L 10.15625 -12.734375 L 9.9375 -12.734375 L 9.9375 -13.125 C 9.9375 -13.46875 9.816406 -13.757812 9.578125 -14 C 9.347656 -14.25 9.066406 -14.378906 8.734375 -14.390625 L 4.34375 -14.390625 L 4.34375 -7.75 L 7.984375 -7.75 C 8.265625 -7.757812 8.503906 -7.863281 8.703125 -8.0625 C 8.910156 -8.269531 9.015625 -8.523438 9.015625 -8.828125 L 9.015625 -9.125 L 9.234375 -9.125 L 9.234375 -5.71875 L 9.015625 -5.71875 L 9.015625 -6.046875 C 9.015625 -6.328125 8.914062 -6.566406 8.71875 -6.765625 C 8.53125 -6.972656 8.289062 -7.082031 8 -7.09375 L 4.34375 -7.09375 L 4.34375 -0.671875 L 7.421875 -0.671875 C 8.484375 -0.671875 9.289062 -0.90625 9.84375 -1.375 C 10.40625 -1.851562 10.875 -2.554688 11.25 -3.484375 L 11.46875 -3.484375 L 10.21875 0 L 1.296875 0 L 1.296875 -0.21875 Z M 1.578125 -0.21875 "/></g></g></g></svg>